<svg width="1541" height="992" viewBox="0 0 1541 992" fill="none" xmlns="http://www.w3.org/2000/svg">
<g filter="url(#filter0_d_289_2)">
<line x1="-1.61924" y1="-0.324066" x2="581.381" y2="684.676" stroke="#0066FF" stroke-opacity="0.37" shape-rendering="crispEdges"/>
</g>
<g filter="url(#filter1_d_289_2)">
<line x1="-139.619" y1="-75.3241" x2="443.381" y2="609.676" stroke="#0066FF" stroke-opacity="0.37" shape-rendering="crispEdges"/>
</g>
<g filter="url(#filter2_d_289_2)">
<line x1="77.3786" y1="1.67339" x2="718.379" y2="744.673" stroke="#0066FF" stroke-opacity="0.55" shape-rendering="crispEdges"/>
</g>
<g filter="url(#filter3_f_289_2)">
<line x1="1309.39" y1="944.07" x2="1543.84" y2="661.292" stroke="#408CFF" stroke-opacity="0.7"/>
</g>
<g filter="url(#filter4_f_289_2)">
<circle cx="1458.5" cy="773.5" r="163" stroke="#0066FF" stroke-opacity="0.7"/>
</g>
<g filter="url(#filter5_f_289_2)">
<circle cx="1505" cy="689" r="66.5" stroke="#0066FF"/>
</g>
<g filter="url(#filter6_f_289_2)">
<circle cx="1359.5" cy="883.5" r="31" stroke="#0066FF"/>
</g>
<g filter="url(#filter7_f_289_2)">
<circle cx="1319.5" cy="931.5" r="57" stroke="#0066FF"/>
</g>
<g filter="url(#filter8_f_289_2)">
<circle cx="1380" cy="860" r="19.5" stroke="#0066FF"/>
</g>
<g filter="url(#filter9_f_289_2)">
<circle cx="1383" cy="860" r="14" fill="#0066FF"/>
<circle cx="1383" cy="860" r="13" stroke="#0066FF" stroke-width="2"/>
</g>
<circle cx="1340" cy="82" r="289.5" stroke="#0066FF"/>
<g filter="url(#filter10_d_289_2)">
<line x1="1304.6" y1="360.716" x2="1538.4" y2="52.6977" stroke="#0066FF" stroke-opacity="0.55" shape-rendering="crispEdges"/>
</g>
<g filter="url(#filter11_d_289_2)">
<line x1="1407.6" y1="286.527" x2="1534.99" y2="118.698" stroke="#0066FF" stroke-opacity="0.55" shape-rendering="crispEdges"/>
</g>
<g filter="url(#filter12_d_289_2)">
<line x1="1451.6" y1="114.159" x2="1538.48" y2="-0.30229" stroke="#0066FF" stroke-opacity="0.55" shape-rendering="crispEdges"/>
</g>
<g filter="url(#filter13_f_289_2)">
<circle cx="3.44448" cy="312.023" r="13.3232" transform="rotate(-42.7725 3.44448 312.023)" fill="#4791FF" fill-opacity="0.64"/>
<circle cx="37.3732" cy="348.698" r="13.3232" transform="rotate(-42.7725 37.3732 348.698)" fill="#4791FF" fill-opacity="0.64"/>
<circle cx="71.3019" cy="385.373" r="13.3232" transform="rotate(-42.7725 71.3019 385.373)" fill="#4791FF" fill-opacity="0.64"/>
<circle cx="105.231" cy="422.048" r="13.3232" transform="rotate(-42.7725 105.231 422.048)" fill="#4791FF" fill-opacity="0.64"/>
<circle cx="40.1195" cy="278.095" r="13.3232" transform="rotate(-42.7725 40.1195 278.095)" fill="#4791FF" fill-opacity="0.64"/>
<circle cx="74.0483" cy="314.77" r="13.3232" transform="rotate(-42.7725 74.0483 314.77)" fill="#4791FF" fill-opacity="0.64"/>
<circle cx="107.977" cy="351.445" r="13.3232" transform="rotate(-42.7725 107.977 351.445)" fill="#4791FF" fill-opacity="0.64"/>
<circle cx="141.905" cy="388.12" r="13.3232" transform="rotate(-42.7725 141.905 388.12)" fill="#4791FF" fill-opacity="0.64"/>
<circle cx="-2.04804" cy="453.231" r="13.3232" transform="rotate(-42.7725 -2.04804 453.231)" fill="#4791FF" fill-opacity="0.64"/>
<circle cx="31.8805" cy="489.906" r="13.3232" transform="rotate(-42.7725 31.8805 489.906)" fill="#4791FF" fill-opacity="0.64"/>
<circle cx="0.698128" cy="382.627" r="13.3232" transform="rotate(-42.7725 0.698128 382.627)" fill="#4791FF" fill-opacity="0.64"/>
<circle cx="34.6269" cy="419.302" r="13.3232" transform="rotate(-42.7725 34.6269 419.302)" fill="#4791FF" fill-opacity="0.64"/>
<circle cx="68.5556" cy="455.977" r="13.3232" transform="rotate(-42.7725 68.5556 455.977)" fill="#4791FF" fill-opacity="0.64"/>
</g>
<g filter="url(#filter14_f_289_2)">
<circle cx="429.544" cy="110.935" r="6.01882" transform="rotate(-23.1866 429.544 110.935)" fill="#5398FF" fill-opacity="0.57"/>
<circle cx="438.43" cy="131.683" r="6.01882" transform="rotate(-23.1866 438.43 131.683)" fill="#5398FF" fill-opacity="0.57"/>
<circle cx="447.317" cy="152.43" r="6.01882" transform="rotate(-23.1866 447.317 152.43)" fill="#5398FF" fill-opacity="0.57"/>
<circle cx="456.204" cy="173.178" r="6.01882" transform="rotate(-23.1866 456.204 173.178)" fill="#5398FF" fill-opacity="0.57"/>
<circle cx="450.291" cy="102.049" r="6.01882" transform="rotate(-23.1866 450.291 102.049)" fill="#5398FF" fill-opacity="0.57"/>
<circle cx="459.178" cy="122.796" r="6.01882" transform="rotate(-23.1866 459.178 122.796)" fill="#5398FF" fill-opacity="0.57"/>
<circle cx="468.065" cy="143.544" r="6.01882" transform="rotate(-23.1866 468.065 143.544)" fill="#5398FF" fill-opacity="0.57"/>
<circle cx="476.951" cy="164.291" r="6.01882" transform="rotate(-23.1866 476.951 164.291)" fill="#5398FF" fill-opacity="0.57"/>
<circle cx="388.049" cy="128.709" r="6.01882" transform="rotate(-23.1866 388.049 128.709)" fill="#5398FF" fill-opacity="0.57"/>
<circle cx="396.935" cy="149.456" r="6.01882" transform="rotate(-23.1866 396.935 149.456)" fill="#5398FF" fill-opacity="0.57"/>
<circle cx="405.822" cy="170.204" r="6.01882" transform="rotate(-23.1866 405.822 170.204)" fill="#5398FF" fill-opacity="0.57"/>
<circle cx="414.709" cy="190.951" r="6.01882" transform="rotate(-23.1866 414.709 190.951)" fill="#5398FF" fill-opacity="0.57"/>
<circle cx="408.796" cy="119.822" r="6.01882" transform="rotate(-23.1866 408.796 119.822)" fill="#5398FF" fill-opacity="0.57"/>
<circle cx="417.683" cy="140.57" r="6.01882" transform="rotate(-23.1866 417.683 140.57)" fill="#5398FF" fill-opacity="0.57"/>
<circle cx="426.57" cy="161.317" r="6.01882" transform="rotate(-23.1866 426.57 161.317)" fill="#5398FF" fill-opacity="0.57"/>
<circle cx="435.456" cy="182.065" r="6.01882" transform="rotate(-23.1866 435.456 182.065)" fill="#5398FF" fill-opacity="0.57"/>
</g>
<circle cx="646.612" cy="391.181" r="3.50122" transform="rotate(0.757507 646.612 391.181)" fill="#D84568"/>
<circle cx="646.438" cy="404.309" r="3.50122" transform="rotate(0.757507 646.438 404.309)" fill="#D84568"/>
<circle cx="646.264" cy="417.437" r="3.50122" transform="rotate(0.757507 646.264 417.437)" fill="#D84568"/>
<circle cx="646.091" cy="430.566" r="3.50122" transform="rotate(0.757507 646.091 430.566)" fill="#D84568"/>
<circle cx="659.74" cy="391.354" r="3.50122" transform="rotate(0.757507 659.74 391.354)" fill="#D84568"/>
<circle cx="659.566" cy="404.483" r="3.50122" transform="rotate(0.757507 659.566 404.483)" fill="#D84568"/>
<circle cx="659.393" cy="417.611" r="3.50122" transform="rotate(0.757507 659.393 417.611)" fill="#D84568"/>
<circle cx="659.219" cy="430.739" r="3.50122" transform="rotate(0.757507 659.219 430.739)" fill="#D84568"/>
<circle cx="620.355" cy="390.833" r="3.50122" transform="rotate(0.757507 620.355 390.833)" fill="#D84568"/>
<circle cx="620.181" cy="403.962" r="3.50122" transform="rotate(0.757507 620.181 403.962)" fill="#D84568"/>
<circle cx="620.008" cy="417.09" r="3.50122" transform="rotate(0.757507 620.008 417.09)" fill="#D84568"/>
<circle cx="619.834" cy="430.219" r="3.50122" transform="rotate(0.757507 619.834 430.219)" fill="#D84568"/>
<circle cx="633.483" cy="391.007" r="3.50122" transform="rotate(0.757507 633.483 391.007)" fill="#D84568"/>
<circle cx="633.31" cy="404.135" r="3.50122" transform="rotate(0.757507 633.31 404.135)" fill="#D84568"/>
<circle cx="633.136" cy="417.264" r="3.50122" transform="rotate(0.757507 633.136 417.264)" fill="#D84568"/>
<circle cx="632.962" cy="430.392" r="3.50122" transform="rotate(0.757507 632.962 430.392)" fill="#D84568"/>
<defs>
<filter id="filter0_d_289_2" x="-6" y="-0.648132" width="591.761" height="693.648" filterUnits="userSpaceOnUse" color-interpolation-filters="sRGB">
<feFlood flood-opacity="0" result="BackgroundImageFix"/>
<feColorMatrix in="SourceAlpha" type="matrix" values="0 0 0 0 0 0 0 0 0 0 0 0 0 0 0 0 0 0 127 0" result="hardAlpha"/>
<feOffset dy="4"/>
<feGaussianBlur stdDeviation="2"/>
<feComposite in2="hardAlpha" operator="out"/>
<feColorMatrix type="matrix" values="0 0 0 0 0 0 0 0 0 0 0 0 0 0 0 0 0 0 0.25 0"/>
<feBlend mode="normal" in2="BackgroundImageFix" result="effect1_dropShadow_289_2"/>
<feBlend mode="normal" in="SourceGraphic" in2="effect1_dropShadow_289_2" result="shape"/>
</filter>
<filter id="filter1_d_289_2" x="-144" y="-75.6481" width="591.761" height="693.648" filterUnits="userSpaceOnUse" color-interpolation-filters="sRGB">
<feFlood flood-opacity="0" result="BackgroundImageFix"/>
<feColorMatrix in="SourceAlpha" type="matrix" values="0 0 0 0 0 0 0 0 0 0 0 0 0 0 0 0 0 0 127 0" result="hardAlpha"/>
<feOffset dy="4"/>
<feGaussianBlur stdDeviation="2"/>
<feComposite in2="hardAlpha" operator="out"/>
<feColorMatrix type="matrix" values="0 0 0 0 0 0 0 0 0 0 0 0 0 0 0 0 0 0 0.25 0"/>
<feBlend mode="normal" in2="BackgroundImageFix" result="effect1_dropShadow_289_2"/>
<feBlend mode="normal" in="SourceGraphic" in2="effect1_dropShadow_289_2" result="shape"/>
</filter>
<filter id="filter2_d_289_2" x="73" y="1.34678" width="649.757" height="751.653" filterUnits="userSpaceOnUse" color-interpolation-filters="sRGB">
<feFlood flood-opacity="0" result="BackgroundImageFix"/>
<feColorMatrix in="SourceAlpha" type="matrix" values="0 0 0 0 0 0 0 0 0 0 0 0 0 0 0 0 0 0 127 0" result="hardAlpha"/>
<feOffset dy="4"/>
<feGaussianBlur stdDeviation="2"/>
<feComposite in2="hardAlpha" operator="out"/>
<feColorMatrix type="matrix" values="0 0 0 0 0 0 0 0 0 0 0 0 0 0 0 0 0 0 0.25 0"/>
<feBlend mode="normal" in2="BackgroundImageFix" result="effect1_dropShadow_289_2"/>
<feBlend mode="normal" in="SourceGraphic" in2="effect1_dropShadow_289_2" result="shape"/>
</filter>
<filter id="filter3_f_289_2" x="1306.01" y="657.973" width="241.216" height="289.415" filterUnits="userSpaceOnUse" color-interpolation-filters="sRGB">
<feFlood flood-opacity="0" result="BackgroundImageFix"/>
<feBlend mode="normal" in="SourceGraphic" in2="BackgroundImageFix" result="shape"/>
<feGaussianBlur stdDeviation="1.5" result="effect1_foregroundBlur_289_2"/>
</filter>
<filter id="filter4_f_289_2" x="1293" y="608" width="331" height="331" filterUnits="userSpaceOnUse" color-interpolation-filters="sRGB">
<feFlood flood-opacity="0" result="BackgroundImageFix"/>
<feBlend mode="normal" in="SourceGraphic" in2="BackgroundImageFix" result="shape"/>
<feGaussianBlur stdDeviation="1" result="effect1_foregroundBlur_289_2"/>
</filter>
<filter id="filter5_f_289_2" x="1436" y="620" width="138" height="138" filterUnits="userSpaceOnUse" color-interpolation-filters="sRGB">
<feFlood flood-opacity="0" result="BackgroundImageFix"/>
<feBlend mode="normal" in="SourceGraphic" in2="BackgroundImageFix" result="shape"/>
<feGaussianBlur stdDeviation="1" result="effect1_foregroundBlur_289_2"/>
</filter>
<filter id="filter6_f_289_2" x="1325" y="849" width="69" height="69" filterUnits="userSpaceOnUse" color-interpolation-filters="sRGB">
<feFlood flood-opacity="0" result="BackgroundImageFix"/>
<feBlend mode="normal" in="SourceGraphic" in2="BackgroundImageFix" result="shape"/>
<feGaussianBlur stdDeviation="1.5" result="effect1_foregroundBlur_289_2"/>
</filter>
<filter id="filter7_f_289_2" x="1259" y="871" width="121" height="121" filterUnits="userSpaceOnUse" color-interpolation-filters="sRGB">
<feFlood flood-opacity="0" result="BackgroundImageFix"/>
<feBlend mode="normal" in="SourceGraphic" in2="BackgroundImageFix" result="shape"/>
<feGaussianBlur stdDeviation="1.5" result="effect1_foregroundBlur_289_2"/>
</filter>
<filter id="filter8_f_289_2" x="1357" y="837" width="46" height="46" filterUnits="userSpaceOnUse" color-interpolation-filters="sRGB">
<feFlood flood-opacity="0" result="BackgroundImageFix"/>
<feBlend mode="normal" in="SourceGraphic" in2="BackgroundImageFix" result="shape"/>
<feGaussianBlur stdDeviation="1.5" result="effect1_foregroundBlur_289_2"/>
</filter>
<filter id="filter9_f_289_2" x="1331" y="808" width="104" height="104" filterUnits="userSpaceOnUse" color-interpolation-filters="sRGB">
<feFlood flood-opacity="0" result="BackgroundImageFix"/>
<feBlend mode="normal" in="SourceGraphic" in2="BackgroundImageFix" result="shape"/>
<feGaussianBlur stdDeviation="19" result="effect1_foregroundBlur_289_2"/>
</filter>
<filter id="filter10_d_289_2" x="1300.2" y="52.3954" width="242.594" height="316.623" filterUnits="userSpaceOnUse" color-interpolation-filters="sRGB">
<feFlood flood-opacity="0" result="BackgroundImageFix"/>
<feColorMatrix in="SourceAlpha" type="matrix" values="0 0 0 0 0 0 0 0 0 0 0 0 0 0 0 0 0 0 127 0" result="hardAlpha"/>
<feOffset dy="4"/>
<feGaussianBlur stdDeviation="2"/>
<feComposite in2="hardAlpha" operator="out"/>
<feColorMatrix type="matrix" values="0 0 0 0 0 0 0 0 0 0 0 0 0 0 0 0 0 0 0.25 0"/>
<feBlend mode="normal" in2="BackgroundImageFix" result="effect1_dropShadow_289_2"/>
<feBlend mode="normal" in="SourceGraphic" in2="effect1_dropShadow_289_2" result="shape"/>
</filter>
<filter id="filter11_d_289_2" x="1403.2" y="118.395" width="136.185" height="176.434" filterUnits="userSpaceOnUse" color-interpolation-filters="sRGB">
<feFlood flood-opacity="0" result="BackgroundImageFix"/>
<feColorMatrix in="SourceAlpha" type="matrix" values="0 0 0 0 0 0 0 0 0 0 0 0 0 0 0 0 0 0 127 0" result="hardAlpha"/>
<feOffset dy="4"/>
<feGaussianBlur stdDeviation="2"/>
<feComposite in2="hardAlpha" operator="out"/>
<feColorMatrix type="matrix" values="0 0 0 0 0 0 0 0 0 0 0 0 0 0 0 0 0 0 0.25 0"/>
<feBlend mode="normal" in2="BackgroundImageFix" result="effect1_dropShadow_289_2"/>
<feBlend mode="normal" in="SourceGraphic" in2="effect1_dropShadow_289_2" result="shape"/>
</filter>
<filter id="filter12_d_289_2" x="1447.2" y="-0.604588" width="95.6771" height="123.066" filterUnits="userSpaceOnUse" color-interpolation-filters="sRGB">
<feFlood flood-opacity="0" result="BackgroundImageFix"/>
<feColorMatrix in="SourceAlpha" type="matrix" values="0 0 0 0 0 0 0 0 0 0 0 0 0 0 0 0 0 0 127 0" result="hardAlpha"/>
<feOffset dy="4"/>
<feGaussianBlur stdDeviation="2"/>
<feComposite in2="hardAlpha" operator="out"/>
<feColorMatrix type="matrix" values="0 0 0 0 0 0 0 0 0 0 0 0 0 0 0 0 0 0 0.25 0"/>
<feBlend mode="normal" in2="BackgroundImageFix" result="effect1_dropShadow_289_2"/>
<feBlend mode="normal" in="SourceGraphic" in2="effect1_dropShadow_289_2" result="shape"/>
</filter>
<filter id="filter13_f_289_2" x="-85.2287" y="262.771" width="242.458" height="242.458" filterUnits="userSpaceOnUse" color-interpolation-filters="sRGB">
<feFlood flood-opacity="0" result="BackgroundImageFix"/>
<feBlend mode="normal" in="SourceGraphic" in2="BackgroundImageFix" result="shape"/>
<feGaussianBlur stdDeviation="1" result="effect1_foregroundBlur_289_2"/>
</filter>
<filter id="filter14_f_289_2" x="380.028" y="94.0284" width="104.943" height="104.943" filterUnits="userSpaceOnUse" color-interpolation-filters="sRGB">
<feFlood flood-opacity="0" result="BackgroundImageFix"/>
<feBlend mode="normal" in="SourceGraphic" in2="BackgroundImageFix" result="shape"/>
<feGaussianBlur stdDeviation="1" result="effect1_foregroundBlur_289_2"/>
</filter>
</defs>
</svg>
