<svg xmlns="http://www.w3.org/2000/svg" viewBox="0 0 12.73 10.19"><defs><style>.cls-1{fill:#0066FF;}</style></defs><g id="Calque_2" data-name="Calque 2"><g id="Calque_2-2" data-name="Calque 2"><path class="cls-1" d="M5.76,10.19H1a1,1,0,0,0,1-.72H2a.58.58,0,0,0,0-.14l.34-1.94a8.74,8.74,0,0,0,1.47.13,7.8,7.8,0,0,0,1.28-.1L4.81,9a1.39,1.39,0,0,0,0,.24A1,1,0,0,0,5.76,10.19Z"/><path class="cls-1" d="M12.73,10.19H8.64A5.94,5.94,0,0,0,6.5,6.9,7.74,7.74,0,0,0,9,5.35,7.75,7.75,0,0,1,12.73,10.19Z"/><path class="cls-1" d="M11.53,0a7.74,7.74,0,0,1-2.2,5.06,7.91,7.91,0,0,0-2.76-.93A7.71,7.71,0,0,0,8.61,0Z"/><path class="cls-1" d="M9,5.35A7.74,7.74,0,0,1,6.5,6.9a7.52,7.52,0,0,1-1.43.38,7.59,7.59,0,0,1-1.27.11,7.8,7.8,0,0,1-1.47-.14A7.52,7.52,0,0,1,.24,6.52H1a8.31,8.31,0,0,0,1.51-.14,8,8,0,0,0,1.75-.57,7.38,7.38,0,0,0,1.19-.69,7.29,7.29,0,0,0,.87-.71A7.79,7.79,0,0,1,9,5.35Z"/><path class="cls-1" d="M6,4.39c-.18.18-.38.34-.57.5A8.36,8.36,0,0,1,4,5.78a5.41,5.41,0,0,0-1.15-.11H2.59A6.07,6.07,0,0,0,0,6.4H0A7.68,7.68,0,0,1,2.74,4.76a7.88,7.88,0,0,1,2.49-.41h.3Z"/><path class="cls-1" d="M7.05,0a1,1,0,0,0-1,.78L5.57,4.06H5.52a7.63,7.63,0,0,0-2.75.51l.56-3.38a2.11,2.11,0,0,0,0-.21,1,1,0,0,0-1-1Z"/></g></g></svg>